# xmcd
#
# Track frame offsets:
#	150
#	18165
#	36210
#	58792
#	80397
#	94062
#	116187
#	131527
#	143435
#	158170
#	179160
#	223492
#	233757
#	254560
#	281375
#	296140
#	311807
#
# Disc length: 4303
#
# Revision: 1
# Processed by: cddbd v1.5.1PL0 Copyright (c) Steve Scherf et al.
# Submitted via: FreeRIP 2.30 
# Normalized: r0:TDELIM( - )
#
DISCID=0210cd11
DTITLE=Red Lighnin' - The Massive Sounds of Red Lighnin' Vol 4
DYEAR=1997
DGENRE=Blues
TTITLE0=All Night Long - Todd SHarpville  and Paul Lamb
TTITLE1=A Hell Of A Night Tonight - Roy Gaines and The Crusaders
TTITLE2=Can't Get No Grinding - Muddy Waters
TTITLE3=Hi Heel Sneakers - Jimmy Johnson
TTITLE4=This Is The End - Buddy Guy
TTITLE5=Tired of Being Dogged Around - Carey Bell and Willie Williams
TTITLE6=Chicago Express - Colin " Barrel House" Banagan
TTITLE7=I Hear Voices - Screamin' Jay Hawkins
TTITLE8=Sad As A Man Can Be - The Paul DeLay Band
TTITLE9=Gonna Move On Down The Line - Louisiana Red
TTITLE10=The Thrill Is Gone - Luther Allison
TTITLE11=I Want To Be Loved - The Paul DeLay Band
TTITLE12=It Hurts Me Too - Joe Carter
TTITLE13=For You My Love - Pinetop Perkins with Muddy Waters
TTITLE14=Drunk - Tommy Tucker
TTITLE15=Crazy Music - The Elmores feat. Pete Boss
TTITLE16=Gimme That Old 69 - Blowfly
EXTD=
EXTT0=
EXTT1=
EXTT2=
EXTT3=
EXTT4=
EXTT5=
EXTT6=
EXTT7=
EXTT8=
EXTT9=
EXTT10=
EXTT11=
EXTT12=
EXTT13=
EXTT14=
EXTT15=
EXTT16=
PLAYORDER=
